HIERARCHY
ROOT Hips
{
	OFFSET	0.00	0.00	0.00
	CHANNELS 6 Xposition Yposition Zposition Zrotation Xrotation Yrotation
	JOINT LeftUpLeg
	{
		OFFSET	 0.126116	-0.014019	-0.065224
		CHANNELS 3 Zrotation Xrotation Yrotation
		JOINT LeftLeg
		{
			OFFSET	 0.000000	 0.000000	 0.569914
			CHANNELS 3 Zrotation Xrotation Yrotation
			JOINT LeftFoot
			{
				OFFSET	 0.000000	 0.000000	 0.544423
				CHANNELS 3 Zrotation Xrotation Yrotation
				JOINT LeftToeBase
				{
					OFFSET	 0.000000	 0.000000	 0.207117
					CHANNELS 3 Zrotation Xrotation Yrotation
					End Site
					{
						OFFSET	 0.000000	 0.000000	 0.207117
					}
				}
			}
		}
	}
	JOINT RightUpLeg
	{
		OFFSET	-0.124023	-0.008373	-0.065224
		CHANNELS 3 Zrotation Xrotation Yrotation
		JOINT RightLeg
		{
			OFFSET	 0.000000	 0.000000	 0.570047
			CHANNELS 3 Zrotation Xrotation Yrotation
			JOINT RightFoot
			{
				OFFSET	 0.000000	 0.000000	 0.544354
				CHANNELS 3 Zrotation Xrotation Yrotation
				JOINT RightToeBase
				{
					OFFSET	 0.000000	 0.000000	 0.207540
					CHANNELS 3 Zrotation Xrotation Yrotation
					End Site
					{
						OFFSET	 0.000000	 0.000000	 0.207540
					}
				}
			}
		}
	}
	JOINT Spine
	{
		OFFSET	 0.000184	-0.007763	 0.117403
		CHANNELS 3 Zrotation Xrotation Yrotation
		JOINT Spine1
		{
			OFFSET	 0.000000	 0.000000	 0.137269
			CHANNELS 3 Zrotation Xrotation Yrotation
			JOINT Spine2
			{
				OFFSET	 0.000000	 0.000000	 0.156879
				CHANNELS 3 Zrotation Xrotation Yrotation
				JOINT LeftShoulder
				{
					OFFSET	 0.080501	-0.002496	 0.160144
					CHANNELS 3 Zrotation Xrotation Yrotation
					JOINT LeftArm
					{
						OFFSET	 0.000000	 0.000000	 0.164363
						CHANNELS 3 Zrotation Xrotation Yrotation
						JOINT LeftForeArm
						{
							OFFSET	 0.000000	 0.000000	 0.364576
							CHANNELS 3 Zrotation Xrotation Yrotation
							JOINT LeftHand
							{
								OFFSET	 0.000000	 0.000000	 0.360812
								CHANNELS 3 Zrotation Xrotation Yrotation
								JOINT LeftHandIndex1
								{
									OFFSET	 0.000000	 0.000000	 0.086006
									CHANNELS 3 Zrotation Xrotation Yrotation
									JOINT LeftHandIndex2
									{
										OFFSET	 0.000000	 0.000000	 0.047236
										CHANNELS 3 Zrotation Xrotation Yrotation
										JOINT LeftHandIndex3
										{
											OFFSET	-0.004284	-0.000551	 0.038166
											CHANNELS 3 Zrotation Xrotation Yrotation
											End Site
											{
												OFFSET	-0.004284	-0.000551	 0.038166
											}
										}
									}
								}
							}
						}
					}
				}
				JOINT Neck
				{
					OFFSET	 0.000000	 0.000000	 0.176489
					CHANNELS 3 Zrotation Xrotation Yrotation
					JOINT Head
					{
						OFFSET	 0.000000	-0.001747	 0.077940
						CHANNELS 3 Zrotation Xrotation Yrotation
						End Site
						{
							OFFSET	 0.000000	-0.001747	 0.077940
						}
					}
				}
				JOINT RightShoulder
				{
					OFFSET	-0.080363	 0.000306	 0.159706
					CHANNELS 3 Zrotation Xrotation Yrotation
					JOINT RightArm
					{
						OFFSET	 0.000000	 0.000000	 0.164196
						CHANNELS 3 Zrotation Xrotation Yrotation
						JOINT RightForeArm
						{
							OFFSET	 0.000000	 0.000000	 0.365611
							CHANNELS 3 Zrotation Xrotation Yrotation
							JOINT RightHand
							{
								OFFSET	 0.000000	 0.000000	 0.360648
								CHANNELS 3 Zrotation Xrotation Yrotation
								JOINT RightHandIndex1
								{
									OFFSET	 0.000000	 0.000000	 0.069977
									CHANNELS 3 Zrotation Xrotation Yrotation
									JOINT RightHandIndex2
									{
										OFFSET	 0.000000	 0.000000	 0.052305
										CHANNELS 3 Zrotation Xrotation Yrotation
										JOINT RightHandIndex3
										{
											OFFSET	 0.009002	-0.000782	 0.042196
											CHANNELS 3 Zrotation Xrotation Yrotation
											End Site
											{
												OFFSET	 0.009002	-0.000782	 0.042196
											}
										}
									}
								}
							}
						}
					}
				}
			}
		}
	}
}
MOTION
Frames:    9
Frame Time: 0.03333334
-3.500999	-20.027720	 1.092265	-18.992570	 17.467610	 3.765284	 3.561999	-34.847990	 175.429300	-1.450172	-43.063250	-0.398106	-0.783109	 81.007130	 0.475873	-2.353277	 34.034280	-0.125872	-0.744378	-36.000530	-179.481400	-2.938965	-42.991840	-0.931931	-1.604656	 81.341650	 0.547337	 2.406601	 19.915000	-0.174792	 4.362623	 15.161070	 1.962626	-4.765564	 2.193074	-1.777788	-6.416502	-3.623827	-0.626612	-125.539200	 89.278550	-142.024500	 55.934730	 66.208950	-61.821930	-15.954950	 1.699153	-28.411660	-1.614925	-2.202291	-5.374566	-5.612617	-12.158680	-1.217107	-5.213516	-0.193813	 3.566525	-1.378229	 35.397820	-2.634230	 0.799290	 0.099852	-3.791206	-1.538933	-6.997981	 1.086911	 93.698400	 85.953540	 172.023300	-60.839390	 75.267300	 70.018320	 2.718663	-10.673720	 37.276570	-24.722430	-3.184650	 9.585977	-9.824583	-9.837825	-38.828930	 5.070815	-0.697434	-9.399699	-2.350882	 35.473990	 5.254307
-3.502903	-20.040580	 1.092681	-18.889520	 18.053320	 3.797134	 3.597369	-34.962590	 175.568400	-1.943555	-43.184040	-0.720015	-0.970879	 81.636230	 0.277116	-2.352198	 34.181850	-0.129347	-0.771268	-35.739420	-179.406700	-2.640564	-42.592090	-0.749126	-1.565280	 82.355920	 0.771999	 2.405707	 20.766480	-0.157848	 7.779775	 14.918310	 1.893302	-5.518047	 2.034310	-1.857118	-7.436561	-3.840025	-0.740427	-124.064000	 89.244890	-143.459900	 59.684850	 67.231540	-63.133380	-15.148310	 1.504304	-27.219730	-1.084929	-2.234428	-5.371668	-5.252511	-11.808580	-0.407958	-5.213516	-0.193813	 3.566525	-1.378229	 35.397820	-2.634230	 0.739969	-0.111779	-3.634877	-1.860895	-7.480926	 1.004686	 93.671000	 85.987220	 172.129500	-55.548630	 77.501660	 62.849170	 2.053381	-9.682745	 32.439910	-26.399050	-3.191923	 9.572018	-9.376159	-8.938803	-38.419830	 5.070815	-0.697434	-9.399699	-2.350882	 35.473990	 5.254307
-3.504786	-20.051800	 1.092751	-19.023070	 18.488270	 3.843905	 3.552779	-34.979590	 175.626400	-2.070470	-43.486820	-0.846153	-1.055511	 82.155220	 0.210803	-2.345651	 35.033480	-0.149679	-0.744239	-35.428870	-179.469000	-2.377754	-42.327880	-0.557334	-1.476973	 83.012280	 0.937855	 2.404935	 21.347790	-0.146221	 11.143880	 14.730910	 1.908902	-6.105085	 1.857429	-1.854517	-8.310953	-4.049259	-0.842856	-121.058900	 89.167720	-146.391200	 62.660930	 68.001970	-64.153760	-14.349550	 1.326850	-26.316500	-0.504340	-2.259897	-5.367375	-4.647745	-11.236200	 0.973625	-5.213516	-0.193813	 3.566525	-1.378229	 35.397820	-2.634230	 0.748995	-0.376659	-3.471345	-2.151845	-7.926696	 0.813305	 93.685840	 86.060800	 172.209500	-47.930680	 79.223930	 53.433260	 1.695546	-9.069146	 29.615410	-27.807980	-3.207831	 9.541403	-9.015921	-8.164390	-38.119270	 5.070815	-0.697434	-9.399699	-2.350882	 35.473990	 5.254307
-3.506524	-20.062230	 1.093125	-19.333980	 18.857790	 3.929780	 3.551606	-34.890880	 175.661900	-2.142640	-43.708060	-0.908644	-1.109326	 82.483260	 0.191595	-2.338452	 35.909580	-0.170948	-0.729751	-35.276490	-179.580000	-2.313401	-42.189670	-0.505348	-1.461082	 83.318770	 0.999686	 2.404670	 21.532040	-0.142520	 14.655550	 14.565780	 1.869161	-6.644038	 1.680430	-1.731405	-9.105970	-4.237160	-0.938651	-116.263800	 89.022610	-151.141600	 64.859880	 68.806470	-64.674750	-13.955890	 1.236856	-25.607300	-0.104561	-2.279523	-5.363689	-4.136174	-10.698170	 2.163105	-5.213516	-0.193813	 3.566525	-1.378229	 35.397820	-2.634230	 0.828759	-0.533646	-3.297997	-2.391632	-8.404674	 0.824399	 93.906310	 86.261630	 172.076000	-39.134500	 80.325070	 43.077250	 1.705718	-8.511659	 27.823090	-28.672830	-3.220978	 9.513828	-8.790323	-7.628610	-37.963390	 5.070815	-0.697434	-9.399699	-2.350882	 35.473990	 5.254307
-3.508111	-20.073120	 1.094831	-19.749460	 19.317510	 3.936554	 3.575834	-34.791950	 175.748900	-2.402164	-43.601240	-1.072804	-1.199145	 82.449370	 0.100551	-2.330972	 36.763580	-0.192048	-0.805330	-35.396530	-179.459300	-2.527344	-42.118240	-0.695313	-1.610547	 83.384820	 0.941087	 2.404576	 21.590840	-0.141340	 18.719610	 14.319550	 1.824325	-7.295454	 1.523851	-1.494614	-9.928136	-4.375981	-1.035767	-110.302100	 88.766470	-157.131100	 66.570720	 69.574130	-65.050070	-13.902950	 1.223973	-25.023420	 0.147948	-2.299589	-5.360636	-3.932968	-10.744720	 2.643035	-5.213516	-0.193813	 3.566525	-1.378229	 35.397820	-2.634230	 0.920317	-0.652624	-2.974601	-2.555892	-8.768950	 0.988619	 94.393460	 86.558610	 171.617400	-30.536120	 80.784350	 32.981560	 1.774093	-8.054110	 26.836430	-29.154080	-3.231347	 9.490822	-8.693219	-7.589471	-37.759580	 5.070815	-0.697434	-9.399699	-2.350882	 35.473990	 5.254307
-3.509108	-20.078450	 1.096017	-19.982420	 19.556580	 3.903967	 3.574618	-34.784390	 175.771600	-2.573445	-43.479340	-1.186400	-1.250360	 82.318550	 0.028407	-2.327373	 37.156430	-0.201867	-0.854188	-35.398710	-179.357300	-2.661525	-42.065810	-0.815193	-1.708378	 83.404860	 0.905985	 2.404513	 21.627820	-0.140595	 20.879170	 14.193610	 1.863595	-7.642888	 1.469821	-1.380685	-10.339650	-4.412083	-1.082163	-108.577200	 88.664850	-158.877600	 67.169110	 69.836080	-65.271940	-13.578010	 1.122373	-24.776850	 0.642423	-2.311130	-5.355767	-3.850748	-10.903090	 2.837223	-5.213516	-0.193813	 3.566525	-1.378229	 35.397820	-2.634230	 0.958884	-0.762440	-2.789754	-2.616584	-8.816324	 1.104722	 94.672160	 86.692630	 171.327900	-27.173500	 80.811470	 28.987280	 1.703624	-7.950770	 26.681510	-29.392860	-3.234072	 9.482711	-8.651540	-7.633471	-37.629040	 5.070815	-0.697434	-9.399699	-2.350882	 35.473990	 5.254307
-3.510863	-20.085470	 1.097496	-20.245120	 19.787960	 3.880613	 3.573399	-34.497540	 175.789600	-2.700854	-43.276570	-1.270676	-1.298617	 82.190000	-0.022064	-2.323192	 37.598870	-0.213035	-0.825570	-35.339270	-179.260200	-2.897140	-41.902140	-0.960081	-1.822713	 83.379040	 0.855329	 2.404593	 21.580930	-0.141540	 23.736190	 14.012240	 1.923694	-8.100739	 1.443413	-1.272504	-10.879430	-4.407707	-1.138575	-107.289000	 88.587780	-160.224300	 67.537450	 70.032620	-65.428420	-13.177460	 1.012740	-24.640970	 1.287319	-2.322451	-5.349063	-4.003723	-11.027540	 2.478324	-5.213516	-0.193813	 3.566525	-1.378229	 35.397820	-2.634230	 1.011983	-0.803525	-2.579301	-2.705943	-8.918455	 1.148612	 94.867680	 86.794660	 171.148400	-23.969980	 80.707310	 25.090330	 1.669829	-7.877491	 26.796800	-29.542360	-3.235395	 9.479499	-8.594000	-7.707483	-37.439770	 5.070815	-0.697434	-9.399699	-2.350882	 35.473990	 5.254307
-3.513347	-20.092220	 1.098829	-20.334480	 19.953500	 3.854591	 3.566735	-34.258780	 175.807000	-2.654606	-43.056810	-1.236754	-1.317403	 82.221280	 0.016193	-2.319582	 37.969810	-0.222488	-0.732824	-35.005660	-179.227400	-2.965435	-41.512190	-0.955925	-1.807992	 83.500890	 0.849362	 2.404884	 21.384340	-0.145487	 26.494920	 13.756230	 1.977283	-8.584739	 1.453615	-1.218404	-11.414530	-4.363428	-1.190543	-106.835200	 88.575360	-160.757500	 67.304820	 70.049420	-65.197980	-13.496180	 1.159382	-24.955830	 1.135237	-2.316635	-5.351059	-4.146052	-11.119790	 2.145453	-5.213516	-0.193813	 3.566525	-1.378229	 35.397820	-2.634230	 1.061193	-0.768285	-2.537309	-2.774858	-9.053840	 1.263772	 94.909970	 86.828430	 171.129300	-22.305700	 80.504520	 22.942700	 1.801678	-7.783734	 27.146080	-29.413410	-3.234444	 9.482229	-8.539712	-7.794151	-37.249790	 5.070815	-0.697434	-9.399699	-2.350882	 35.473990	 5.254307
-3.516019	-20.097290	 1.099877	-20.159280	 20.012540	 3.829304	 3.524753	-34.056360	 175.768400	-2.510474	-42.902320	-1.158216	-1.315020	 82.288000	 0.085774	-2.317012	 38.228820	-0.229122	-0.690647	-34.465940	-179.271600	-2.825030	-40.946380	-0.841436	-1.685900	 83.626090	 0.863356	 2.405107	 21.225500	-0.148668	 28.497950	 13.594200	 1.992074	-9.041139	 1.473544	-1.255650	-11.841110	-4.292505	-1.228049	-107.037200	 88.607030	-160.607100	 66.539840	 69.998530	-64.701880	-14.022910	 1.369069	-25.723030	 0.825383	-2.299388	-5.355237	-4.247647	-11.351810	 1.911360	-5.213516	-0.193813	 3.566525	-1.378229	 35.397820	-2.634230	 1.067562	-0.778847	-2.524989	-2.805168	-9.109690	 1.212857	 94.917900	 86.796860	 171.064600	-22.309110	 80.354900	 22.907950	 1.927485	-7.725372	 27.499440	-29.308640	-3.233766	 9.484694	-8.506548	-7.865131	-37.121470	 5.070815	-0.697434	-9.399699	-2.350882	 35.473990	 5.254307
